# xmcd
#
# Track frame offsets: 
#        150
#        11835
#        24922
#        35450
#        49912
#        59437
#        72530
#        85590
#        97062
#        110495
#
# Disc length: 1645 seconds
#
# Revision: 5
# Processed by: cddbd v1.5.2PL0 Copyright (c) Steve Scherf et al.
# Submitted via: ExactAudioCopy v1.3
#
DISCID=83066b0a
DTITLE=George Strait - #7
DYEAR=1986
DGENRE=Country
TTITLE0=Deep water
TTITLE1=Nobody In His Right Mind Would've Left Her
TTITLE2=Rhythm Of The Road
TTITLE3=I'm Never Gonna Let You Go
TTITLE4=You Still Get To Me
TTITLE5=Stranger Things Have Happened
TTITLE6=It Ain't Cool To Be Crazy About You
TTITLE7=Why'd You Go And Break My Heart
TTITLE8=My Old Flame Is Burnin' Another Honky Tonk Down
TTITLE9=Cow Town
EXTD=
EXTT0=
EXTT1=
EXTT2=
EXTT3=
EXTT4=
EXTT5=
EXTT6=
EXTT7=
EXTT8=
EXTT9=
PLAYORDER=
